<svg width="222" height="79" viewBox="0 0 222 79" fill="none" xmlns="http://www.w3.org/2000/svg">
<rect width="222" height="79" rx="12" fill="white"/>
<path d="M77.77 47.763V48.294H75.772V54H75.16V48.294H73.162V47.763H77.77ZM78.7047 54V47.124L79.2897 47.016V49.482C79.4817 49.41 79.6767 49.356 79.8747 49.32C80.0727 49.278 80.2707 49.257 80.4687 49.257C80.8287 49.257 81.1287 49.308 81.3687 49.41C81.6087 49.512 81.8007 49.659 81.9447 49.851C82.0887 50.037 82.1877 50.262 82.2417 50.526C82.3017 50.79 82.3317 51.081 82.3317 51.399V54H81.7467V51.588C81.7467 51.258 81.7227 50.979 81.6747 50.751C81.6327 50.523 81.5577 50.337 81.4497 50.193C81.3477 50.049 81.2097 49.947 81.0357 49.887C80.8617 49.821 80.6427 49.788 80.3787 49.788C80.2767 49.788 80.1657 49.797 80.0457 49.815C79.9317 49.833 79.8237 49.854 79.7217 49.878C79.6197 49.896 79.5267 49.917 79.4427 49.941C79.3647 49.965 79.3137 49.983 79.2897 49.995V54H78.7047ZM83.5497 51.669C83.5497 51.261 83.6067 50.907 83.7207 50.607C83.8407 50.301 83.9937 50.046 84.1797 49.842C84.3717 49.638 84.5877 49.488 84.8277 49.392C85.0737 49.29 85.3257 49.239 85.5837 49.239C86.1537 49.239 86.6067 49.425 86.9427 49.797C87.2847 50.169 87.4557 50.742 87.4557 51.516C87.4557 51.564 87.4527 51.612 87.4467 51.66C87.4467 51.708 87.4437 51.753 87.4377 51.795H84.1707C84.1887 52.365 84.3297 52.803 84.5937 53.109C84.8577 53.415 85.2777 53.568 85.8537 53.568C86.1717 53.568 86.4237 53.538 86.6097 53.478C86.7957 53.418 86.9307 53.367 87.0147 53.325L87.1227 53.829C87.0387 53.877 86.8797 53.934 86.6457 54C86.4177 54.066 86.1477 54.099 85.8357 54.099C85.4277 54.099 85.0797 54.039 84.7917 53.919C84.5037 53.799 84.2667 53.631 84.0807 53.415C83.8947 53.199 83.7597 52.944 83.6757 52.65C83.5917 52.35 83.5497 52.023 83.5497 51.669ZM86.8527 51.3C86.8407 50.814 86.7267 50.436 86.5107 50.166C86.2947 49.896 85.9887 49.761 85.5927 49.761C85.3827 49.761 85.1937 49.803 85.0257 49.887C84.8637 49.971 84.7197 50.085 84.5937 50.229C84.4737 50.367 84.3777 50.529 84.3057 50.715C84.2397 50.901 84.2007 51.096 84.1887 51.3H86.8527ZM94.3802 53.838C94.2062 53.886 93.9722 53.94 93.6782 54C93.3842 54.06 93.0242 54.09 92.5982 54.09C92.2502 54.09 91.9592 54.039 91.7252 53.937C91.4912 53.835 91.3022 53.691 91.1582 53.505C91.0142 53.319 90.9092 53.094 90.8432 52.83C90.7832 52.566 90.7532 52.275 90.7532 51.957V49.347H91.3382V51.768C91.3382 52.098 91.3622 52.377 91.4102 52.605C91.4582 52.833 91.5362 53.019 91.6442 53.163C91.7522 53.301 91.8902 53.403 92.0582 53.469C92.2322 53.529 92.4422 53.559 92.6882 53.559C92.9642 53.559 93.2042 53.544 93.4082 53.514C93.6122 53.484 93.7412 53.457 93.7952 53.433V49.347H94.3802V53.838ZM95.9312 49.509C96.1052 49.461 96.3392 49.407 96.6332 49.347C96.9272 49.287 97.2872 49.257 97.7132 49.257C98.0672 49.257 98.3612 49.308 98.5952 49.41C98.8352 49.512 99.0242 49.659 99.1622 49.851C99.3062 50.037 99.4082 50.262 99.4682 50.526C99.5282 50.79 99.5582 51.081 99.5582 51.399V54H98.9732V51.588C98.9732 51.258 98.9492 50.979 98.9012 50.751C98.8592 50.523 98.7842 50.337 98.6762 50.193C98.5742 50.049 98.4362 49.947 98.2622 49.887C98.0942 49.821 97.8812 49.788 97.6232 49.788C97.3472 49.788 97.1072 49.803 96.9032 49.833C96.7052 49.863 96.5762 49.89 96.5162 49.914V54H95.9312V49.509ZM105.024 51.678C105.024 52.044 104.97 52.377 104.862 52.677C104.76 52.977 104.613 53.232 104.421 53.442C104.235 53.652 104.013 53.817 103.755 53.937C103.497 54.051 103.212 54.108 102.9 54.108C102.588 54.108 102.303 54.051 102.045 53.937C101.787 53.817 101.562 53.652 101.37 53.442C101.184 53.232 101.037 52.977 100.929 52.677C100.827 52.377 100.776 52.044 100.776 51.678C100.776 51.312 100.827 50.979 100.929 50.679C101.037 50.379 101.184 50.124 101.37 49.914C101.562 49.698 101.787 49.533 102.045 49.419C102.303 49.299 102.588 49.239 102.9 49.239C103.212 49.239 103.497 49.299 103.755 49.419C104.013 49.533 104.235 49.698 104.421 49.914C104.613 50.124 104.76 50.379 104.862 50.679C104.97 50.979 105.024 51.312 105.024 51.678ZM104.403 51.678C104.403 51.096 104.268 50.634 103.998 50.292C103.728 49.944 103.362 49.77 102.9 49.77C102.438 49.77 102.072 49.944 101.802 50.292C101.532 50.634 101.397 51.096 101.397 51.678C101.397 52.26 101.532 52.722 101.802 53.064C102.072 53.406 102.438 53.577 102.9 53.577C103.362 53.577 103.728 53.406 103.998 53.064C104.268 52.722 104.403 52.26 104.403 51.678ZM108.004 47.016C108.256 47.016 108.46 47.037 108.616 47.079C108.778 47.115 108.883 47.148 108.931 47.178L108.814 47.682C108.748 47.652 108.649 47.622 108.517 47.592C108.391 47.556 108.229 47.538 108.031 47.538C107.617 47.538 107.32 47.643 107.14 47.853C106.966 48.063 106.879 48.399 106.879 48.861V49.347H108.751V49.842H106.879V54H106.294V48.843C106.294 48.237 106.432 47.781 106.708 47.475C106.99 47.169 107.422 47.016 108.004 47.016ZM111.388 47.016C111.64 47.016 111.844 47.037 112 47.079C112.162 47.115 112.267 47.148 112.315 47.178L112.198 47.682C112.132 47.652 112.033 47.622 111.901 47.592C111.775 47.556 111.613 47.538 111.415 47.538C111.001 47.538 110.704 47.643 110.524 47.853C110.35 48.063 110.263 48.399 110.263 48.861V49.347H112.135V49.842H110.263V54H109.678V48.843C109.678 48.237 109.816 47.781 110.092 47.475C110.374 47.169 110.806 47.016 111.388 47.016ZM113.647 54H113.062V49.347H113.647V54ZM113.782 47.943C113.782 48.081 113.74 48.192 113.656 48.276C113.572 48.354 113.47 48.393 113.35 48.393C113.23 48.393 113.128 48.354 113.044 48.276C112.96 48.192 112.918 48.081 112.918 47.943C112.918 47.805 112.96 47.697 113.044 47.619C113.128 47.535 113.23 47.493 113.35 47.493C113.47 47.493 113.572 47.535 113.656 47.619C113.74 47.697 113.782 47.805 113.782 47.943ZM117.123 54.099C116.763 54.099 116.445 54.042 116.169 53.928C115.893 53.814 115.662 53.652 115.476 53.442C115.296 53.226 115.158 52.971 115.062 52.677C114.966 52.377 114.918 52.047 114.918 51.687C114.918 51.321 114.966 50.988 115.062 50.688C115.164 50.388 115.308 50.13 115.494 49.914C115.68 49.698 115.905 49.533 116.169 49.419C116.433 49.299 116.73 49.239 117.06 49.239C117.312 49.239 117.546 49.26 117.762 49.302C117.984 49.344 118.155 49.398 118.275 49.464L118.122 49.968C118.002 49.908 117.867 49.86 117.717 49.824C117.567 49.788 117.366 49.77 117.114 49.77C116.598 49.77 116.205 49.938 115.935 50.274C115.671 50.604 115.539 51.075 115.539 51.687C115.539 51.963 115.569 52.218 115.629 52.452C115.689 52.68 115.785 52.878 115.917 53.046C116.055 53.208 116.229 53.337 116.439 53.433C116.655 53.523 116.916 53.568 117.222 53.568C117.474 53.568 117.684 53.541 117.852 53.487C118.026 53.427 118.152 53.376 118.23 53.334L118.356 53.838C118.248 53.898 118.077 53.955 117.843 54.009C117.615 54.069 117.375 54.099 117.123 54.099ZM119.922 54H119.337V49.347H119.922V54ZM120.057 47.943C120.057 48.081 120.015 48.192 119.931 48.276C119.847 48.354 119.745 48.393 119.625 48.393C119.505 48.393 119.403 48.354 119.319 48.276C119.235 48.192 119.193 48.081 119.193 47.943C119.193 47.805 119.235 47.697 119.319 47.619C119.403 47.535 119.505 47.493 119.625 47.493C119.745 47.493 119.847 47.535 119.931 47.619C120.015 47.697 120.057 47.805 120.057 47.943ZM122.939 53.577C123.167 53.577 123.365 53.571 123.533 53.559C123.707 53.541 123.854 53.52 123.974 53.496V51.858C123.908 51.828 123.803 51.798 123.659 51.768C123.515 51.732 123.317 51.714 123.065 51.714C122.921 51.714 122.771 51.726 122.615 51.75C122.459 51.768 122.315 51.813 122.183 51.885C122.051 51.951 121.943 52.044 121.859 52.164C121.775 52.284 121.733 52.443 121.733 52.641C121.733 52.815 121.76 52.962 121.814 53.082C121.874 53.202 121.955 53.298 122.057 53.37C122.165 53.442 122.291 53.496 122.435 53.532C122.585 53.562 122.753 53.577 122.939 53.577ZM122.885 49.239C123.191 49.239 123.449 49.284 123.659 49.374C123.875 49.458 124.049 49.578 124.181 49.734C124.313 49.884 124.409 50.064 124.469 50.274C124.529 50.484 124.559 50.712 124.559 50.958V53.892C124.499 53.91 124.412 53.931 124.298 53.955C124.184 53.973 124.052 53.994 123.902 54.018C123.752 54.042 123.584 54.06 123.398 54.072C123.218 54.09 123.032 54.099 122.84 54.099C122.594 54.099 122.366 54.072 122.156 54.018C121.952 53.964 121.772 53.88 121.616 53.766C121.466 53.646 121.346 53.496 121.256 53.316C121.172 53.13 121.13 52.905 121.13 52.641C121.13 52.389 121.178 52.173 121.274 51.993C121.37 51.813 121.505 51.666 121.679 51.552C121.853 51.432 122.06 51.345 122.3 51.291C122.54 51.237 122.801 51.21 123.083 51.21C123.167 51.21 123.254 51.216 123.344 51.228C123.44 51.234 123.53 51.246 123.614 51.264C123.704 51.276 123.779 51.291 123.839 51.309C123.905 51.321 123.95 51.333 123.974 51.345V51.057C123.974 50.895 123.962 50.739 123.938 50.589C123.914 50.433 123.86 50.295 123.776 50.175C123.698 50.049 123.584 49.95 123.434 49.878C123.29 49.8 123.098 49.761 122.858 49.761C122.516 49.761 122.261 49.785 122.093 49.833C121.925 49.881 121.802 49.92 121.724 49.95L121.643 49.437C121.745 49.389 121.901 49.344 122.111 49.302C122.327 49.26 122.585 49.239 122.885 49.239ZM127.23 54.081C127.032 54.075 126.858 54.048 126.708 54C126.564 53.958 126.441 53.892 126.339 53.802C126.243 53.706 126.168 53.586 126.114 53.442C126.066 53.292 126.042 53.106 126.042 52.884V47.124L126.627 47.016V52.866C126.627 53.01 126.639 53.127 126.663 53.217C126.693 53.301 126.735 53.37 126.789 53.424C126.843 53.472 126.912 53.508 126.996 53.532C127.086 53.556 127.191 53.577 127.311 53.595L127.23 54.081ZM137.427 50.877C137.427 51.411 137.343 51.876 137.175 52.272C137.007 52.668 136.77 52.998 136.464 53.262C136.164 53.526 135.804 53.724 135.384 53.856C134.964 53.988 134.502 54.054 133.998 54.054C133.746 54.054 133.482 54.039 133.206 54.009C132.93 53.985 132.687 53.946 132.477 53.892V47.88C132.687 47.82 132.93 47.778 133.206 47.754C133.482 47.724 133.746 47.709 133.998 47.709C134.502 47.709 134.964 47.775 135.384 47.907C135.804 48.039 136.164 48.237 136.464 48.501C136.77 48.765 137.007 49.095 137.175 49.491C137.343 49.887 137.427 50.349 137.427 50.877ZM133.089 53.46C133.125 53.466 133.215 53.478 133.359 53.496C133.509 53.514 133.746 53.523 134.07 53.523C134.52 53.523 134.913 53.463 135.249 53.343C135.585 53.217 135.867 53.04 136.095 52.812C136.323 52.584 136.494 52.308 136.608 51.984C136.722 51.654 136.779 51.285 136.779 50.877C136.779 50.469 136.722 50.103 136.608 49.779C136.494 49.455 136.323 49.179 136.095 48.951C135.867 48.723 135.585 48.549 135.249 48.429C134.913 48.303 134.52 48.24 134.07 48.24C133.746 48.24 133.509 48.249 133.359 48.267C133.215 48.285 133.125 48.297 133.089 48.303V53.46ZM138.481 51.669C138.481 51.261 138.538 50.907 138.652 50.607C138.772 50.301 138.925 50.046 139.111 49.842C139.303 49.638 139.519 49.488 139.759 49.392C140.005 49.29 140.257 49.239 140.515 49.239C141.085 49.239 141.538 49.425 141.874 49.797C142.216 50.169 142.387 50.742 142.387 51.516C142.387 51.564 142.384 51.612 142.378 51.66C142.378 51.708 142.375 51.753 142.369 51.795H139.102C139.12 52.365 139.261 52.803 139.525 53.109C139.789 53.415 140.209 53.568 140.785 53.568C141.103 53.568 141.355 53.538 141.541 53.478C141.727 53.418 141.862 53.367 141.946 53.325L142.054 53.829C141.97 53.877 141.811 53.934 141.577 54C141.349 54.066 141.079 54.099 140.767 54.099C140.359 54.099 140.011 54.039 139.723 53.919C139.435 53.799 139.198 53.631 139.012 53.415C138.826 53.199 138.691 52.944 138.607 52.65C138.523 52.35 138.481 52.023 138.481 51.669ZM141.784 51.3C141.772 50.814 141.658 50.436 141.442 50.166C141.226 49.896 140.92 49.761 140.524 49.761C140.314 49.761 140.125 49.803 139.957 49.887C139.795 49.971 139.651 50.085 139.525 50.229C139.405 50.367 139.309 50.529 139.237 50.715C139.171 50.901 139.132 51.096 139.12 51.3H141.784ZM144.24 49.347H146.094V49.842H144.24V52.317C144.24 52.581 144.261 52.797 144.303 52.965C144.351 53.127 144.417 53.253 144.501 53.343C144.585 53.433 144.687 53.493 144.807 53.523C144.927 53.553 145.059 53.568 145.203 53.568C145.449 53.568 145.647 53.541 145.797 53.487C145.947 53.427 146.064 53.373 146.148 53.325L146.292 53.811C146.208 53.865 146.061 53.928 145.851 54C145.641 54.066 145.413 54.099 145.167 54.099C144.879 54.099 144.636 54.063 144.438 53.991C144.246 53.913 144.09 53.799 143.97 53.649C143.856 53.493 143.775 53.301 143.727 53.073C143.679 52.845 143.655 52.575 143.655 52.263V47.979L144.24 47.871V49.347ZM148.638 53.577C148.866 53.577 149.064 53.571 149.232 53.559C149.406 53.541 149.553 53.52 149.673 53.496V51.858C149.607 51.828 149.502 51.798 149.358 51.768C149.214 51.732 149.016 51.714 148.764 51.714C148.62 51.714 148.47 51.726 148.314 51.75C148.158 51.768 148.014 51.813 147.882 51.885C147.75 51.951 147.642 52.044 147.558 52.164C147.474 52.284 147.432 52.443 147.432 52.641C147.432 52.815 147.459 52.962 147.513 53.082C147.573 53.202 147.654 53.298 147.756 53.37C147.864 53.442 147.99 53.496 148.134 53.532C148.284 53.562 148.452 53.577 148.638 53.577ZM148.584 49.239C148.89 49.239 149.148 49.284 149.358 49.374C149.574 49.458 149.748 49.578 149.88 49.734C150.012 49.884 150.108 50.064 150.168 50.274C150.228 50.484 150.258 50.712 150.258 50.958V53.892C150.198 53.91 150.111 53.931 149.997 53.955C149.883 53.973 149.751 53.994 149.601 54.018C149.451 54.042 149.283 54.06 149.097 54.072C148.917 54.09 148.731 54.099 148.539 54.099C148.293 54.099 148.065 54.072 147.855 54.018C147.651 53.964 147.471 53.88 147.315 53.766C147.165 53.646 147.045 53.496 146.955 53.316C146.871 53.13 146.829 52.905 146.829 52.641C146.829 52.389 146.877 52.173 146.973 51.993C147.069 51.813 147.204 51.666 147.378 51.552C147.552 51.432 147.759 51.345 147.999 51.291C148.239 51.237 148.5 51.21 148.782 51.21C148.866 51.21 148.953 51.216 149.043 51.228C149.139 51.234 149.229 51.246 149.313 51.264C149.403 51.276 149.478 51.291 149.538 51.309C149.604 51.321 149.649 51.333 149.673 51.345V51.057C149.673 50.895 149.661 50.739 149.637 50.589C149.613 50.433 149.559 50.295 149.475 50.175C149.397 50.049 149.283 49.95 149.133 49.878C148.989 49.8 148.797 49.761 148.557 49.761C148.215 49.761 147.96 49.785 147.792 49.833C147.624 49.881 147.501 49.92 147.423 49.95L147.342 49.437C147.444 49.389 147.6 49.344 147.81 49.302C148.026 49.26 148.284 49.239 148.584 49.239ZM155.175 53.604C155.661 53.604 156.039 53.517 156.309 53.343C156.579 53.163 156.714 52.875 156.714 52.479C156.714 52.251 156.669 52.062 156.579 51.912C156.495 51.756 156.381 51.627 156.237 51.525C156.093 51.417 155.928 51.327 155.742 51.255C155.556 51.177 155.361 51.096 155.157 51.012C154.899 50.91 154.668 50.805 154.464 50.697C154.26 50.589 154.086 50.469 153.942 50.337C153.798 50.199 153.687 50.043 153.609 49.869C153.537 49.695 153.501 49.491 153.501 49.257C153.501 48.723 153.678 48.318 154.032 48.042C154.386 47.766 154.878 47.628 155.508 47.628C155.676 47.628 155.841 47.64 156.003 47.664C156.165 47.688 156.315 47.721 156.453 47.763C156.597 47.799 156.726 47.841 156.84 47.889C156.96 47.937 157.059 47.988 157.137 48.042L156.921 48.555C156.747 48.435 156.534 48.339 156.282 48.267C156.036 48.195 155.769 48.159 155.481 48.159C155.283 48.159 155.1 48.18 154.932 48.222C154.77 48.258 154.629 48.321 154.509 48.411C154.389 48.495 154.293 48.603 154.221 48.735C154.155 48.867 154.122 49.026 154.122 49.212C154.122 49.404 154.158 49.566 154.23 49.698C154.302 49.83 154.401 49.944 154.527 50.04C154.659 50.136 154.812 50.223 154.986 50.301C155.16 50.379 155.349 50.46 155.553 50.544C155.799 50.646 156.03 50.748 156.246 50.85C156.468 50.952 156.66 51.072 156.822 51.21C156.984 51.348 157.113 51.516 157.209 51.714C157.305 51.912 157.353 52.155 157.353 52.443C157.353 53.007 157.155 53.43 156.759 53.712C156.369 53.994 155.838 54.135 155.166 54.135C154.926 54.135 154.707 54.12 154.509 54.09C154.311 54.06 154.134 54.024 153.978 53.982C153.822 53.934 153.69 53.886 153.582 53.838C153.474 53.79 153.39 53.748 153.33 53.712L153.528 53.181C153.588 53.217 153.669 53.259 153.771 53.307C153.873 53.355 153.993 53.403 154.131 53.451C154.269 53.493 154.425 53.529 154.599 53.559C154.773 53.589 154.965 53.604 155.175 53.604ZM163.434 50.877C163.434 51.411 163.35 51.876 163.182 52.272C163.014 52.668 162.777 52.998 162.471 53.262C162.171 53.526 161.811 53.724 161.391 53.856C160.971 53.988 160.509 54.054 160.005 54.054C159.753 54.054 159.489 54.039 159.213 54.009C158.937 53.985 158.694 53.946 158.484 53.892V47.88C158.694 47.82 158.937 47.778 159.213 47.754C159.489 47.724 159.753 47.709 160.005 47.709C160.509 47.709 160.971 47.775 161.391 47.907C161.811 48.039 162.171 48.237 162.471 48.501C162.777 48.765 163.014 49.095 163.182 49.491C163.35 49.887 163.434 50.349 163.434 50.877ZM159.096 53.46C159.132 53.466 159.222 53.478 159.366 53.496C159.516 53.514 159.753 53.523 160.077 53.523C160.527 53.523 160.92 53.463 161.256 53.343C161.592 53.217 161.874 53.04 162.102 52.812C162.33 52.584 162.501 52.308 162.615 51.984C162.729 51.654 162.786 51.285 162.786 50.877C162.786 50.469 162.729 50.103 162.615 49.779C162.501 49.455 162.33 49.179 162.102 48.951C161.874 48.723 161.592 48.549 161.256 48.429C160.92 48.303 160.527 48.24 160.077 48.24C159.753 48.24 159.516 48.249 159.366 48.267C159.222 48.285 159.132 48.297 159.096 48.303V53.46ZM168.61 54C168.406 53.688 168.175 53.379 167.917 53.073C167.665 52.767 167.398 52.479 167.116 52.209C166.834 51.939 166.546 51.693 166.252 51.471C165.964 51.249 165.685 51.063 165.415 50.913V54H164.803V47.763H165.415V50.67C165.643 50.466 165.895 50.232 166.171 49.968C166.453 49.698 166.729 49.428 166.999 49.158C167.275 48.888 167.533 48.63 167.773 48.384C168.013 48.138 168.205 47.931 168.349 47.763H169.087C168.913 47.949 168.703 48.171 168.457 48.429C168.211 48.681 167.95 48.942 167.674 49.212C167.398 49.482 167.122 49.749 166.846 50.013C166.576 50.271 166.333 50.499 166.117 50.697C166.291 50.805 166.477 50.94 166.675 51.102C166.879 51.258 167.083 51.432 167.287 51.624C167.497 51.81 167.701 52.008 167.899 52.218C168.103 52.422 168.292 52.629 168.466 52.839C168.646 53.049 168.805 53.253 168.943 53.451C169.087 53.649 169.204 53.832 169.294 54H168.61ZM173.913 47.016C174.165 47.016 174.369 47.037 174.525 47.079C174.687 47.115 174.792 47.148 174.84 47.178L174.723 47.682C174.657 47.652 174.558 47.622 174.426 47.592C174.3 47.556 174.138 47.538 173.94 47.538C173.526 47.538 173.229 47.643 173.049 47.853C172.875 48.063 172.788 48.399 172.788 48.861V49.347H174.66V49.842H172.788V54H172.203V48.843C172.203 48.237 172.341 47.781 172.617 47.475C172.899 47.169 173.331 47.016 173.913 47.016ZM179.556 51.678C179.556 52.044 179.502 52.377 179.394 52.677C179.292 52.977 179.145 53.232 178.953 53.442C178.767 53.652 178.545 53.817 178.287 53.937C178.029 54.051 177.744 54.108 177.432 54.108C177.12 54.108 176.835 54.051 176.577 53.937C176.319 53.817 176.094 53.652 175.902 53.442C175.716 53.232 175.569 52.977 175.461 52.677C175.359 52.377 175.308 52.044 175.308 51.678C175.308 51.312 175.359 50.979 175.461 50.679C175.569 50.379 175.716 50.124 175.902 49.914C176.094 49.698 176.319 49.533 176.577 49.419C176.835 49.299 177.12 49.239 177.432 49.239C177.744 49.239 178.029 49.299 178.287 49.419C178.545 49.533 178.767 49.698 178.953 49.914C179.145 50.124 179.292 50.379 179.394 50.679C179.502 50.979 179.556 51.312 179.556 51.678ZM178.935 51.678C178.935 51.096 178.8 50.634 178.53 50.292C178.26 49.944 177.894 49.77 177.432 49.77C176.97 49.77 176.604 49.944 176.334 50.292C176.064 50.634 175.929 51.096 175.929 51.678C175.929 52.26 176.064 52.722 176.334 53.064C176.604 53.406 176.97 53.577 177.432 53.577C177.894 53.577 178.26 53.406 178.53 53.064C178.8 52.722 178.935 52.26 178.935 51.678ZM182.409 49.257C182.601 49.257 182.781 49.272 182.949 49.302C183.123 49.332 183.243 49.362 183.309 49.392L183.192 49.896C183.144 49.872 183.045 49.848 182.895 49.824C182.751 49.794 182.559 49.779 182.319 49.779C182.067 49.779 181.863 49.797 181.707 49.833C181.557 49.869 181.458 49.899 181.41 49.923V54H180.825V49.563C180.975 49.497 181.182 49.431 181.446 49.365C181.71 49.293 182.031 49.257 182.409 49.257ZM190.433 49.635C190.433 50.103 190.31 50.472 190.064 50.742C189.818 51.012 189.494 51.207 189.092 51.327C189.188 51.447 189.311 51.609 189.461 51.813C189.617 52.017 189.776 52.242 189.938 52.488C190.1 52.728 190.259 52.98 190.415 53.244C190.571 53.508 190.703 53.76 190.811 54H190.154C190.028 53.76 189.89 53.52 189.74 53.28C189.596 53.04 189.446 52.809 189.29 52.587C189.14 52.359 188.993 52.149 188.849 51.957C188.705 51.765 188.579 51.597 188.471 51.453C188.279 51.471 188.087 51.48 187.895 51.48H186.887V54H186.275V47.88C186.491 47.82 186.743 47.778 187.031 47.754C187.325 47.724 187.595 47.709 187.841 47.709C188.699 47.709 189.344 47.871 189.776 48.195C190.214 48.519 190.433 48.999 190.433 49.635ZM187.913 48.24C187.685 48.24 187.484 48.249 187.31 48.267C187.142 48.279 187.001 48.291 186.887 48.303V50.958H187.733C188.015 50.958 188.282 50.946 188.534 50.922C188.786 50.892 189.005 50.832 189.191 50.742C189.377 50.646 189.524 50.511 189.632 50.337C189.74 50.163 189.794 49.926 189.794 49.626C189.794 49.35 189.74 49.122 189.632 48.942C189.524 48.762 189.383 48.621 189.209 48.519C189.035 48.411 188.834 48.339 188.606 48.303C188.384 48.261 188.153 48.24 187.913 48.24ZM195.375 53.838C195.201 53.886 194.967 53.94 194.673 54C194.379 54.06 194.019 54.09 193.593 54.09C193.245 54.09 192.954 54.039 192.72 53.937C192.486 53.835 192.297 53.691 192.153 53.505C192.009 53.319 191.904 53.094 191.838 52.83C191.778 52.566 191.748 52.275 191.748 51.957V49.347H192.333V51.768C192.333 52.098 192.357 52.377 192.405 52.605C192.453 52.833 192.531 53.019 192.639 53.163C192.747 53.301 192.885 53.403 193.053 53.469C193.227 53.529 193.437 53.559 193.683 53.559C193.959 53.559 194.199 53.544 194.403 53.514C194.607 53.484 194.736 53.457 194.79 53.433V49.347H195.375V53.838ZM197.88 53.586C198.216 53.586 198.492 53.532 198.708 53.424C198.93 53.31 199.041 53.121 199.041 52.857C199.041 52.731 199.02 52.623 198.978 52.533C198.942 52.443 198.879 52.362 198.789 52.29C198.699 52.218 198.579 52.149 198.429 52.083C198.285 52.017 198.105 51.939 197.889 51.849C197.715 51.777 197.55 51.705 197.394 51.633C197.238 51.555 197.1 51.468 196.98 51.372C196.86 51.27 196.764 51.15 196.692 51.012C196.62 50.874 196.584 50.706 196.584 50.508C196.584 50.13 196.725 49.824 197.007 49.59C197.295 49.356 197.688 49.239 198.186 49.239C198.504 49.239 198.765 49.266 198.969 49.32C199.179 49.374 199.326 49.422 199.41 49.464L199.275 49.986C199.203 49.95 199.08 49.902 198.906 49.842C198.738 49.782 198.489 49.752 198.159 49.752C198.027 49.752 197.901 49.767 197.781 49.797C197.667 49.821 197.565 49.863 197.475 49.923C197.385 49.977 197.313 50.049 197.259 50.139C197.205 50.223 197.178 50.328 197.178 50.454C197.178 50.58 197.202 50.688 197.25 50.778C197.298 50.868 197.367 50.949 197.457 51.021C197.553 51.087 197.667 51.15 197.799 51.21C197.937 51.27 198.093 51.336 198.267 51.408C198.447 51.48 198.618 51.555 198.78 51.633C198.948 51.705 199.095 51.795 199.221 51.903C199.347 52.005 199.449 52.131 199.527 52.281C199.605 52.425 199.644 52.608 199.644 52.83C199.644 53.25 199.485 53.568 199.167 53.784C198.855 54 198.426 54.108 197.88 54.108C197.472 54.108 197.16 54.072 196.944 54C196.728 53.934 196.584 53.883 196.512 53.847L196.665 53.316C196.683 53.328 196.722 53.349 196.782 53.379C196.842 53.403 196.923 53.433 197.025 53.469C197.127 53.499 197.247 53.526 197.385 53.55C197.529 53.574 197.694 53.586 197.88 53.586ZM201.325 49.347H203.179V49.842H201.325V52.317C201.325 52.581 201.346 52.797 201.388 52.965C201.436 53.127 201.502 53.253 201.586 53.343C201.67 53.433 201.772 53.493 201.892 53.523C202.012 53.553 202.144 53.568 202.288 53.568C202.534 53.568 202.732 53.541 202.882 53.487C203.032 53.427 203.149 53.373 203.233 53.325L203.377 53.811C203.293 53.865 203.146 53.928 202.936 54C202.726 54.066 202.498 54.099 202.252 54.099C201.964 54.099 201.721 54.063 201.523 53.991C201.331 53.913 201.175 53.799 201.055 53.649C200.941 53.493 200.86 53.301 200.812 53.073C200.764 52.845 200.74 52.575 200.74 52.263V47.979L201.325 47.871V49.347Z" fill="black"/>
<path d="M82.6445 37.5391V22H84.8242V40H82.832L82.6445 37.5391ZM74.1133 33.8008V33.5547C74.1133 32.5859 74.2305 31.707 74.4648 30.918C74.707 30.1211 75.0469 29.4375 75.4844 28.8672C75.9297 28.2969 76.457 27.8594 77.0664 27.5547C77.6836 27.2422 78.3711 27.0859 79.1289 27.0859C79.9258 27.0859 80.6211 27.2266 81.2148 27.5078C81.8164 27.7812 82.3242 28.1836 82.7383 28.7148C83.1602 29.2383 83.4922 29.8711 83.7344 30.6133C83.9766 31.3555 84.1445 32.1953 84.2383 33.1328V34.2109C84.1523 35.1406 83.9844 35.9766 83.7344 36.7188C83.4922 37.4609 83.1602 38.0938 82.7383 38.6172C82.3242 39.1406 81.8164 39.543 81.2148 39.8242C80.6133 40.0977 79.9102 40.2344 79.1055 40.2344C78.3633 40.2344 77.6836 40.0742 77.0664 39.7539C76.457 39.4336 75.9297 38.9844 75.4844 38.4062C75.0469 37.8281 74.707 37.1484 74.4648 36.3672C74.2305 35.5781 74.1133 34.7227 74.1133 33.8008ZM76.293 33.5547V33.8008C76.293 34.4336 76.3555 35.0273 76.4805 35.582C76.6133 36.1367 76.8164 36.625 77.0898 37.0469C77.3633 37.4688 77.7109 37.8008 78.1328 38.043C78.5547 38.2773 79.0586 38.3945 79.6445 38.3945C80.3633 38.3945 80.9531 38.2422 81.4141 37.9375C81.8828 37.6328 82.2578 37.2305 82.5391 36.7305C82.8203 36.2305 83.0391 35.6875 83.1953 35.1016V32.2773C83.1016 31.8477 82.9648 31.4336 82.7852 31.0352C82.6133 30.6289 82.3867 30.2695 82.1055 29.957C81.832 29.6367 81.4922 29.3828 81.0859 29.1953C80.6875 29.0078 80.2148 28.9141 79.668 28.9141C79.0742 28.9141 78.5625 29.0391 78.1328 29.2891C77.7109 29.5312 77.3633 29.8672 77.0898 30.2969C76.8164 30.7188 76.6133 31.2109 76.4805 31.7734C76.3555 32.3281 76.293 32.9219 76.293 33.5547ZM93.4609 40.2344C92.5781 40.2344 91.7773 40.0859 91.0586 39.7891C90.3477 39.4844 89.7344 39.0586 89.2188 38.5117C88.7109 37.9648 88.3203 37.3164 88.0469 36.5664C87.7734 35.8164 87.6367 34.9961 87.6367 34.1055V33.6133C87.6367 32.582 87.7891 31.6641 88.0938 30.8594C88.3984 30.0469 88.8125 29.3594 89.3359 28.7969C89.8594 28.2344 90.4531 27.8086 91.1172 27.5195C91.7812 27.2305 92.4688 27.0859 93.1797 27.0859C94.0859 27.0859 94.8672 27.2422 95.5234 27.5547C96.1875 27.8672 96.7305 28.3047 97.1523 28.8672C97.5742 29.4219 97.8867 30.0781 98.0898 30.8359C98.293 31.5859 98.3945 32.4062 98.3945 33.2969V34.2695H88.9258V32.5H96.2266V32.3359C96.1953 31.7734 96.0781 31.2266 95.875 30.6953C95.6797 30.1641 95.3672 29.7266 94.9375 29.3828C94.5078 29.0391 93.9219 28.8672 93.1797 28.8672C92.6875 28.8672 92.2344 28.9727 91.8203 29.1836C91.4062 29.3867 91.0508 29.6914 90.7539 30.0977C90.457 30.5039 90.2266 31 90.0625 31.5859C89.8984 32.1719 89.8164 32.8477 89.8164 33.6133V34.1055C89.8164 34.707 89.8984 35.2734 90.0625 35.8047C90.2344 36.3281 90.4805 36.7891 90.8008 37.1875C91.1289 37.5859 91.5234 37.8984 91.9844 38.125C92.4531 38.3516 92.9844 38.4648 93.5781 38.4648C94.3438 38.4648 94.9922 38.3086 95.5234 37.9961C96.0547 37.6836 96.5195 37.2656 96.918 36.7422L98.2305 37.7852C97.957 38.1992 97.6094 38.5938 97.1875 38.9688C96.7656 39.3438 96.2461 39.6484 95.6289 39.8828C95.0195 40.1172 94.2969 40.2344 93.4609 40.2344ZM106.234 27.3203V28.9844H99.3789V27.3203H106.234ZM101.699 24.2383H103.867V36.8594C103.867 37.2891 103.934 37.6133 104.066 37.832C104.199 38.0508 104.371 38.1953 104.582 38.2656C104.793 38.3359 105.02 38.3711 105.262 38.3711C105.441 38.3711 105.629 38.3555 105.824 38.3242C106.027 38.2852 106.18 38.2539 106.281 38.2305L106.293 40C106.121 40.0547 105.895 40.1055 105.613 40.1523C105.34 40.207 105.008 40.2344 104.617 40.2344C104.086 40.2344 103.598 40.1289 103.152 39.918C102.707 39.707 102.352 39.3555 102.086 38.8633C101.828 38.3633 101.699 37.6914 101.699 36.8477V24.2383ZM116.254 37.832V31.3047C116.254 30.8047 116.152 30.3711 115.949 30.0039C115.754 29.6289 115.457 29.3398 115.059 29.1367C114.66 28.9336 114.168 28.832 113.582 28.832C113.035 28.832 112.555 28.9258 112.141 29.1133C111.734 29.3008 111.414 29.5469 111.18 29.8516C110.953 30.1562 110.84 30.4844 110.84 30.8359H108.672C108.672 30.3828 108.789 29.9336 109.023 29.4883C109.258 29.043 109.594 28.6406 110.031 28.2812C110.477 27.9141 111.008 27.625 111.625 27.4141C112.25 27.1953 112.945 27.0859 113.711 27.0859C114.633 27.0859 115.445 27.2422 116.148 27.5547C116.859 27.8672 117.414 28.3398 117.812 28.9727C118.219 29.5977 118.422 30.3828 118.422 31.3281V37.2344C118.422 37.6562 118.457 38.1055 118.527 38.582C118.605 39.0586 118.719 39.4688 118.867 39.8125V40H116.605C116.496 39.75 116.41 39.418 116.348 39.0039C116.285 38.582 116.254 38.1914 116.254 37.832ZM116.629 32.3125L116.652 33.8359H114.461C113.844 33.8359 113.293 33.8867 112.809 33.9883C112.324 34.082 111.918 34.2266 111.59 34.4219C111.262 34.6172 111.012 34.8633 110.84 35.1602C110.668 35.4492 110.582 35.7891 110.582 36.1797C110.582 36.5781 110.672 36.9414 110.852 37.2695C111.031 37.5977 111.301 37.8594 111.66 38.0547C112.027 38.2422 112.477 38.3359 113.008 38.3359C113.672 38.3359 114.258 38.1953 114.766 37.9141C115.273 37.6328 115.676 37.2891 115.973 36.8828C116.277 36.4766 116.441 36.082 116.465 35.6992L117.391 36.7422C117.336 37.0703 117.188 37.4336 116.945 37.832C116.703 38.2305 116.379 38.6133 115.973 38.9805C115.574 39.3398 115.098 39.6406 114.543 39.8828C113.996 40.1172 113.379 40.2344 112.691 40.2344C111.832 40.2344 111.078 40.0664 110.43 39.7305C109.789 39.3945 109.289 38.9453 108.93 38.3828C108.578 37.8125 108.402 37.1758 108.402 36.4727C108.402 35.793 108.535 35.1953 108.801 34.6797C109.066 34.1562 109.449 33.7227 109.949 33.3789C110.449 33.0273 111.051 32.7617 111.754 32.582C112.457 32.4023 113.242 32.3125 114.109 32.3125H116.629ZM126.344 31.8555V33.6367H120.625V31.8555H126.344ZM130.633 29.3125V40H128.465V27.3203H130.574L130.633 29.3125ZM134.594 27.25L134.582 29.2656C134.402 29.2266 134.23 29.2031 134.066 29.1953C133.91 29.1797 133.73 29.1719 133.527 29.1719C133.027 29.1719 132.586 29.25 132.203 29.4062C131.82 29.5625 131.496 29.7812 131.23 30.0625C130.965 30.3438 130.754 30.6797 130.598 31.0703C130.449 31.4531 130.352 31.875 130.305 32.3359L129.695 32.6875C129.695 31.9219 129.77 31.2031 129.918 30.5312C130.074 29.8594 130.312 29.2656 130.633 28.75C130.953 28.2266 131.359 27.8203 131.852 27.5312C132.352 27.2344 132.945 27.0859 133.633 27.0859C133.789 27.0859 133.969 27.1055 134.172 27.1445C134.375 27.1758 134.516 27.2109 134.594 27.25ZM144.355 37.0703V27.3203H146.535V40H144.461L144.355 37.0703ZM144.766 34.3984L145.668 34.375C145.668 35.2188 145.578 36 145.398 36.7188C145.227 37.4297 144.945 38.0469 144.555 38.5703C144.164 39.0938 143.652 39.5039 143.02 39.8008C142.387 40.0898 141.617 40.2344 140.711 40.2344C140.094 40.2344 139.527 40.1445 139.012 39.9648C138.504 39.7852 138.066 39.5078 137.699 39.1328C137.332 38.7578 137.047 38.2695 136.844 37.668C136.648 37.0664 136.551 36.3438 136.551 35.5V27.3203H138.719V35.5234C138.719 36.0938 138.781 36.5664 138.906 36.9414C139.039 37.3086 139.215 37.6016 139.434 37.8203C139.66 38.0312 139.91 38.1797 140.184 38.2656C140.465 38.3516 140.754 38.3945 141.051 38.3945C141.973 38.3945 142.703 38.2188 143.242 37.8672C143.781 37.5078 144.168 37.0273 144.402 36.4258C144.645 35.8164 144.766 35.1406 144.766 34.3984ZM157.223 36.6367C157.223 36.3242 157.152 36.0352 157.012 35.7695C156.879 35.4961 156.602 35.25 156.18 35.0312C155.766 34.8047 155.141 34.6094 154.305 34.4453C153.602 34.2969 152.965 34.1211 152.395 33.918C151.832 33.7148 151.352 33.4688 150.953 33.1797C150.562 32.8906 150.262 32.5508 150.051 32.1602C149.84 31.7695 149.734 31.3125 149.734 30.7891C149.734 30.2891 149.844 29.8164 150.062 29.3711C150.289 28.9258 150.605 28.5312 151.012 28.1875C151.426 27.8438 151.922 27.5742 152.5 27.3789C153.078 27.1836 153.723 27.0859 154.434 27.0859C155.449 27.0859 156.316 27.2656 157.035 27.625C157.754 27.9844 158.305 28.4648 158.688 29.0664C159.07 29.6602 159.262 30.3203 159.262 31.0469H157.094C157.094 30.6953 156.988 30.3555 156.777 30.0273C156.574 29.6914 156.273 29.4141 155.875 29.1953C155.484 28.9766 155.004 28.8672 154.434 28.8672C153.832 28.8672 153.344 28.9609 152.969 29.1484C152.602 29.3281 152.332 29.5586 152.16 29.8398C151.996 30.1211 151.914 30.418 151.914 30.7305C151.914 30.9648 151.953 31.1758 152.031 31.3633C152.117 31.543 152.266 31.7109 152.477 31.8672C152.688 32.0156 152.984 32.1562 153.367 32.2891C153.75 32.4219 154.238 32.5547 154.832 32.6875C155.871 32.9219 156.727 33.2031 157.398 33.5312C158.07 33.8594 158.57 34.2617 158.898 34.7383C159.227 35.2148 159.391 35.793 159.391 36.4727C159.391 37.0273 159.273 37.5352 159.039 37.9961C158.812 38.457 158.48 38.8555 158.043 39.1914C157.613 39.5195 157.098 39.7773 156.496 39.9648C155.902 40.1445 155.234 40.2344 154.492 40.2344C153.375 40.2344 152.43 40.0352 151.656 39.6367C150.883 39.2383 150.297 38.7227 149.898 38.0898C149.5 37.457 149.301 36.7891 149.301 36.0859H151.48C151.512 36.6797 151.684 37.1523 151.996 37.5039C152.309 37.8477 152.691 38.0938 153.145 38.2422C153.598 38.3828 154.047 38.4531 154.492 38.4531C155.086 38.4531 155.582 38.375 155.98 38.2188C156.387 38.0625 156.695 37.8477 156.906 37.5742C157.117 37.3008 157.223 36.9883 157.223 36.6367ZM167.547 27.3203V28.9844H160.691V27.3203H167.547ZM163.012 24.2383H165.18V36.8594C165.18 37.2891 165.246 37.6133 165.379 37.832C165.512 38.0508 165.684 38.1953 165.895 38.2656C166.105 38.3359 166.332 38.3711 166.574 38.3711C166.754 38.3711 166.941 38.3555 167.137 38.3242C167.34 38.2852 167.492 38.2539 167.594 38.2305L167.605 40C167.434 40.0547 167.207 40.1055 166.926 40.1523C166.652 40.207 166.32 40.2344 165.93 40.2344C165.398 40.2344 164.91 40.1289 164.465 39.918C164.02 39.707 163.664 39.3555 163.398 38.8633C163.141 38.3633 163.012 37.6914 163.012 36.8477V24.2383Z" fill="black"/>
<path d="M41.2679 15C54.6705 15 65.5355 26.1929 65.5355 40C65.5355 53.8071 54.6705 65 41.2679 65C27.8651 65 17 53.8071 17 40C17 26.1929 27.8651 15 41.2679 15Z" fill="#F73B95"/>
<path d="M41.6454 20C52.4952 20 61.2906 29.0609 61.2906 40.2381C61.2906 51.4153 52.4952 60.4761 41.6454 60.4761C30.7956 60.4761 22 51.4153 22 40.2381C22 29.0609 30.7956 20 41.6454 20Z" fill="#BD399C"/>
<path d="M41.3254 25.2386C49.3031 25.2386 55.7704 31.9009 55.7704 40.1196C55.7704 48.3381 49.3031 55.0004 41.3254 55.0004C33.3475 55.0004 26.8804 48.3381 26.8804 40.1196C26.8804 31.9009 33.3475 25.2386 41.3254 25.2386V25.2386Z" fill="#93388E"/>
<path d="M40.7827 30.7091C40.7827 30.6193 40.8004 30.5305 40.8348 30.4475C40.8691 30.3646 40.9195 30.2892 40.983 30.2258C41.0465 30.1623 41.1218 30.1119 41.2048 30.0776C41.2877 30.0432 41.3766 30.0255 41.4664 30.0255C41.5562 30.0255 41.6451 30.0432 41.7281 30.0776C41.811 30.1119 41.8864 30.1623 41.9499 30.2258C42.0134 30.2892 42.0637 30.3646 42.0981 30.4475C42.1325 30.5305 42.1501 30.6193 42.1501 30.7091C42.1501 30.8904 42.0781 31.0643 41.9499 31.1925C41.8217 31.3207 41.6478 31.3927 41.4664 31.3927C41.2851 31.3927 41.1112 31.3207 40.983 31.1925C40.8548 31.0643 40.7827 30.8904 40.7827 30.7091ZM32.6256 36.8979C32.6256 36.8081 32.6433 36.7192 32.6776 36.6363C32.712 36.5534 32.7623 36.478 32.8258 36.4145C32.8893 36.3511 32.9647 36.3007 33.0477 36.2664C33.1306 36.232 33.2195 36.2143 33.3093 36.2143C33.3991 36.2143 33.488 36.232 33.5709 36.2664C33.6539 36.3007 33.7293 36.3511 33.7928 36.4145C33.8562 36.478 33.9066 36.5534 33.941 36.6363C33.9753 36.7192 33.993 36.8081 33.993 36.8979C33.993 37.0792 33.921 37.2531 33.7928 37.3812C33.6645 37.5094 33.4906 37.5815 33.3093 37.5815C33.128 37.5815 32.9541 37.5094 32.8258 37.3812C32.6976 37.2531 32.6256 37.0792 32.6256 36.8979ZM48.9399 36.9295C48.9399 36.7482 49.0119 36.5744 49.1401 36.4462C49.2683 36.318 49.4422 36.2459 49.6236 36.2459C49.8049 36.2459 49.9788 36.318 50.107 36.4462C50.2353 36.5744 50.3073 36.7482 50.3073 36.9295C50.3073 37.1108 50.2353 37.2847 50.107 37.4129C49.9788 37.5411 49.8049 37.6131 49.6236 37.6131C49.4422 37.6131 49.2683 37.5411 49.1401 37.4129C49.0119 37.2847 48.9399 37.1108 48.9399 36.9295ZM34.6041 37.8683C34.7552 37.8008 34.8734 37.6762 34.9328 37.5219C34.9922 37.3675 34.988 37.1958 34.9212 37.0445L34.6178 36.3588H35.8112V41.7353H33.4035C33.1064 40.6919 33.0139 39.6009 33.131 38.5224L34.6041 37.8683ZM39.595 38.0005V36.4156H42.4363C42.583 36.4156 43.4716 36.5852 43.4716 37.2494C43.4716 37.8014 42.7886 37.9998 42.2278 37.9998L39.595 38.0005ZM35.7156 46.5333C35.7156 46.4435 35.7333 46.3546 35.7676 46.2717C35.802 46.1887 35.8524 46.1134 35.9159 46.0499C35.9793 45.9864 36.0547 45.9361 36.1377 45.9017C36.2206 45.8674 36.3095 45.8497 36.3993 45.8497C36.4891 45.8497 36.578 45.8674 36.661 45.9017C36.7439 45.9361 36.8193 45.9864 36.8828 46.0499C36.9463 46.1134 36.9966 46.1887 37.031 46.2717C37.0653 46.3546 37.083 46.4435 37.083 46.5333C37.083 46.7146 37.011 46.8884 36.8828 47.0166C36.7546 47.1448 36.5807 47.2168 36.3993 47.2168C36.218 47.2168 36.0441 47.1448 35.9159 47.0166C35.7876 46.8884 35.7156 46.7146 35.7156 46.5333ZM45.8477 46.5649C45.8477 46.3836 45.9197 46.2097 46.0479 46.0815C46.1762 45.9533 46.3501 45.8813 46.5314 45.8813C46.7127 45.8813 46.8866 45.9533 47.0149 46.0815C47.1431 46.2097 47.2151 46.3836 47.2151 46.5649C47.2151 46.7462 47.1431 46.9201 47.0149 47.0482C46.8866 47.1764 46.7127 47.2485 46.5314 47.2485C46.3501 47.2485 46.1762 47.1764 46.0479 47.0482C45.9197 46.9201 45.8477 46.7462 45.8477 46.5649ZM46.059 45.0145C45.7211 44.9426 45.3904 45.1568 45.3185 45.4939L44.9756 47.0954C43.8719 47.5951 42.6733 47.8509 41.4617 47.845C40.25 47.8392 39.054 47.572 37.9551 47.0616L37.6122 45.4601C37.5403 45.1223 37.2096 44.9081 36.8717 44.9807L35.4575 45.284C35.1947 45.0134 34.9505 44.7255 34.7263 44.4222H41.6066C41.6843 44.4222 41.736 44.4078 41.736 44.3374V41.9043C41.736 41.8324 41.6843 41.8194 41.6066 41.8194H39.5936V40.2769H41.7698C41.9683 40.2769 42.8317 40.3344 43.1085 41.437L43.5147 43.234C43.6441 43.6294 44.1711 44.4222 44.7319 44.4222H48.2835C48.0451 44.7409 47.7844 45.0424 47.5034 45.3243L46.059 45.0145ZM49.8795 38.5899C49.9279 39.0756 49.9339 39.5645 49.8975 40.0512H49.0348C48.9485 40.0512 48.9125 40.1087 48.9125 40.1928V40.5896C48.9125 41.524 48.3863 41.7253 47.9247 41.7778C47.4861 41.8281 46.9973 41.5937 46.9383 41.3249C46.6795 39.8672 46.2481 39.5567 45.5723 39.0176C46.4185 38.4799 47.2992 37.6878 47.2992 36.6262C47.2992 35.4804 46.5134 34.7588 45.9778 34.4051C45.2265 33.9092 44.3947 33.8107 44.1704 33.8107H35.2303C36.4652 32.4312 38.1206 31.4972 39.9401 31.1533L40.9934 32.2581C41.2306 32.5075 41.626 32.5169 41.8748 32.2782L43.0539 31.1519C44.2549 31.3767 45.3926 31.8602 46.3879 32.5689C47.3832 33.2775 48.2123 34.1943 48.8176 35.2555L48.011 37.0769C47.9441 37.2282 47.9399 37.3998 47.9993 37.5542C48.0588 37.7086 48.177 37.8331 48.328 37.9006L49.8795 38.5899ZM51.8911 38.6187L51.8638 38.3369L52.6949 37.5621C52.8639 37.4039 52.8006 37.0877 52.5849 37.0071L51.523 36.6104L51.4396 36.3372L52.101 35.4172C52.2362 35.2303 52.1118 34.932 51.8854 34.8946L50.7653 34.7128L50.6308 34.4612L51.1017 33.4283C51.1981 33.2177 51.019 32.9489 50.7875 32.9575L49.6516 32.997L49.4719 32.7792L49.7328 31.6723C49.7853 31.4473 49.5574 31.2195 49.3324 31.2719L48.2252 31.5328L48.0067 31.3532L48.0462 30.2175C48.0548 29.9875 47.7859 29.8078 47.576 29.9034L46.5436 30.3742L46.292 30.239L46.1094 29.1192C46.0734 28.892 45.7736 28.7684 45.5867 28.9035L44.6665 29.5648L44.3933 29.4821L43.9964 28.4205C43.9159 28.2049 43.5988 28.1416 43.4414 28.3098L42.6664 29.1407L42.3845 29.1134L41.7864 28.1466C41.6656 27.9511 41.3406 27.9511 41.2206 28.1466L40.6224 29.1134L40.3406 29.1407L39.5641 28.3084C39.4059 28.1402 39.0896 28.2027 39.0091 28.4191L38.6122 29.4807L38.339 29.5634L37.4188 28.9021C37.2319 28.7669 36.9328 28.8913 36.8961 29.1177L36.7135 30.2376L36.4619 30.3727L35.4295 29.9019C35.2195 29.8063 34.9499 29.986 34.9593 30.216L34.9988 31.3517L34.7803 31.5314L33.6731 31.2705C33.4481 31.218 33.2201 31.4459 33.2726 31.6709L33.5336 32.7778L33.3539 32.9956L32.2179 32.9561C31.9879 32.9489 31.8081 33.2163 31.9038 33.4269L32.3747 34.4598L32.2395 34.7113L31.1194 34.8932C30.8922 34.9291 30.7686 35.2289 30.9037 35.4157L31.5651 36.3358L31.4817 36.6089L30.4199 37.0057C30.2042 37.0862 30.1409 37.4032 30.3099 37.5606L31.141 38.3355L31.1136 38.6172L30.1467 39.2153C29.9511 39.336 29.9511 39.6609 30.1467 39.781L31.1136 40.379L31.141 40.6608L30.3077 41.4385C30.1395 41.5966 30.202 41.9129 30.4177 41.9934L31.4796 42.3902L31.563 42.6633L30.9016 43.5834C30.7671 43.7702 30.8908 44.0693 31.1172 44.1059L32.2366 44.2878L32.3718 44.5393L31.9009 45.5715C31.8053 45.7814 31.9857 46.051 32.2151 46.0423L33.351 46.0028L33.5307 46.2213L33.2698 47.3282C33.2173 47.5525 33.4452 47.7811 33.6702 47.7279L34.7774 47.467L34.9959 47.6467L34.9564 48.7824C34.9478 49.0124 35.2167 49.1921 35.4266 49.0965L36.459 48.6257L36.7106 48.7608L36.8932 49.8799C36.9292 50.1078 37.229 50.2307 37.4159 50.097L38.3362 49.4343L38.6094 49.5177L39.0062 50.5793C39.0867 50.795 39.4038 50.8582 39.5612 50.6893L40.3363 49.8584L40.6181 49.8871L41.2162 50.8539C41.337 51.048 41.6605 51.0494 41.782 50.8539L42.3802 49.8871L42.662 49.8584L43.4371 50.6893C43.5952 50.8582 43.9116 50.795 43.9921 50.5793L44.3889 49.5177L44.6621 49.4343L45.5824 50.097C45.7693 50.2314 46.0684 50.1078 46.1051 49.8799L46.2877 48.7608L46.5393 48.6257L47.5717 49.0965C47.7816 49.1921 48.0505 49.0131 48.0419 48.7824L48.0024 47.6467L48.2202 47.467L49.3274 47.7279C49.5524 47.7804 49.7803 47.5525 49.7278 47.3282L49.4668 46.2213L49.6466 46.0028L50.7825 46.0423C51.0126 46.0517 51.1923 45.7814 51.0967 45.5715L50.6258 44.5393L50.7602 44.2878L51.8803 44.1059C52.1082 44.07 52.2326 43.771 52.096 43.5834L51.4346 42.6633L51.518 42.3902L52.5799 41.9934C52.7955 41.9122 52.8588 41.5959 52.6899 41.4385L51.8588 40.6636L51.8861 40.3819L52.8531 39.7838C53.0486 39.6631 53.0493 39.3396 52.8531 39.2181L51.8911 38.6187Z" fill="white"/>
</svg>
